<svg xmlns="http://www.w3.org/2000/svg" version="1.1" xmlns:xlink="http://www.w3.org/1999/xlink" xmlns:svgjs="http://svgjs.dev/svgjs" width="100%" height="100%" viewBox="0 0 1000 600"><rect width="1000" height="600" x="0" y="0" fill="#1a0202"/><g><circle r="166.66666666666666" cx="330.6865488688151" cy="352.90877886412545" fill="burlywood" transform="matrix(0.7621026590982332,0,0,0.7621026590982332,0,31.047269518218684)"/><path d="M266.0049693539458 351.2185340869102L266.0049693539458 351.2185340869102Q266.0049693539458 320.08646160287077 283.85087959100883 298.9779730625561Q301.69678982807187 277.9087926945698 333.10401951840964 277.9087926945698L333.10401951840964 277.9087926945698Q349.4955273793243 277.9087926945698 361.83829349042077 284.0015594054614Q374.1417514291889 290.09432611635293 381.33514696527374 300.82545716198774Q388.567850673687 311.59589637995094 391.9483534939236 324.8820586269273Q395.3681644864885 338.2075290462321 395.3681644864885 353.77356528825186L395.3681644864885 353.77356528825186L299.6920730393269 353.77356528825186Q301.69678982807187 376.965386961968 315.2581092813466 393.2389703058978Q328.8587369069497 409.51255364982757 352.3257157869643 409.51255364982757L352.3257157869643 409.51255364982757Q367.3414376163874 409.51255364982757 384.8728824748237 402.9873970433243L384.8728824748237 402.9873970433243L389.7077876712087 416.3128674626291Q363.37131221122576 427.9087782994872 339.5898679525845 427.9087782994872L339.5898679525845 427.9087782994872Q305.3524498546068 427.9087782994872 285.69836369044043 405.5424282446659Q266.0049693539458 383.17607818984465 266.0049693539458 351.2185340869102ZM299.6920730393269 339.8977804563504L299.6920730393269 339.8977804563504L360.26596659728744 335.3773406385921Q359.4011868060641 318.39621019275245 352.3257157869643 305.93551956467104Q345.25024476786444 293.4748289365896 332.2392397271863 293.4748289365896L332.2392397271863 293.4748289365896Q318.08829768898653 293.4748289365896 309.16534257045504 306.760991183566Q300.2816956242519 320.08646160287077 299.6920730393269 339.8977804563504Z " fill="#1a0202" transform="matrix(0.7621026590982332,0,0,0.7621026590982332,0,31.047269518218684)"/><path d="M580.6865640256393 353.4590999096252L580.6865640256393 353.4590999096252Q580.6865640256393 319.81130439657244 601.2054299810289 298.8600485455711Q621.7242959364186 277.9087926945698 650.851651631713 277.9087926945698L650.851651631713 277.9087926945698Q676.0481900941742 277.9087926945698 696.1346661539523 289.77986073772627L696.1346661539523 289.77986073772627Q695.8595089476538 299.41036295816775 690.4742893386723 307.468538285476Q685.0890697296908 315.56602178511247 678.3280640892175 319.22168181164744L678.3280640892175 319.22168181164744L651.1268088380114 293.4748289365896L649.436557427893 293.4748289365896Q635.0104581833949 296.02986013793117 625.1047987566552 311.71382089693594Q615.1991393299153 327.43708982826894 615.1991393299153 352.90878549702853L615.1991393299153 352.90878549702853Q615.1991393299153 382.0754493646513 628.6425342662051 395.6367688179261Q642.0859292024949 409.23739644352924 664.1771220510178 409.23739644352924L664.1771220510178 409.23739644352924Q681.4334097031558 409.23739644352924 695.8595089476538 401.29714563320596L695.8595089476538 401.29714563320596L700.6551059717104 415.1729304651074Q676.9129698853975 427.9087782994872 652.266745835533 427.9087782994872L652.266745835533 427.9087782994872Q621.7242959364186 427.9087782994872 601.2054299810289 408.2546921353209Q580.6865640256393 388.56129779882616 580.6865640256393 353.4590999096252ZM788.7054119871756 277.9087926945698L788.7054119871756 277.9087926945698Q819.837484471215 277.9087926945698 840.1991177372913 298.9779730625561Q860.5607510033677 320.08646160287077 860.5607510033677 352.6336282907302L860.5607510033677 352.6336282907302Q860.5607510033677 385.45595218488796 840.1991177372913 406.6823652421876Q819.837484471215 427.9087782994872 788.7054119871756 427.9087782994872L788.7054119871756 427.9087782994872Q757.5733395031361 427.9087782994872 737.0544735477465 406.6823652421876Q716.5356075923568 385.45595218488796 716.5356075923568 352.6336282907302L716.5356075923568 352.6336282907302Q716.5356075923568 320.08646160287077 737.0544735477465 298.9779730625561Q757.5733395031361 277.9087926945698 788.7054119871756 277.9087926945698ZM788.7054119871756 293.4748289365896L788.7054119871756 293.4748289365896Q771.1346589564108 293.4748289365896 761.6613894252827 309.5911795912059Q752.1881198941545 325.7468384181506 752.1881198941545 352.6336282907302L752.1881198941545 352.6336282907302Q752.1881198941545 379.52041816330967 761.6613894252827 395.91192602422444Q771.1346589564108 412.34274205746743 788.7054119871756 412.34274205746743L788.7054119871756 412.34274205746743Q806.2368568456119 412.34274205746743 815.71012637674 395.79400150723944Q825.1833959078682 379.24526095701134 825.1833959078682 352.6336282907302L825.1833959078682 352.6336282907302Q825.1833959078682 325.7468384181506 815.71012637674 309.5911795912059Q806.2368568456119 293.4748289365896 788.7054119871756 293.4748289365896ZM958.7918736518709 423.66349568802724L882.6519438518906 423.66349568802724L882.6519438518906 411.4779622662441L906.7085453168302 405.81758545096426L906.7085453168302 305.0707397734477L882.6519438518906 305.0707397734477L882.6519438518906 292.9245145239929L927.9349583741298 282.15407530602977L940.3956490022111 282.15407530602977L940.3956490022111 294.88992314040956Q962.1723764721074 277.9087926945698 985.0890409395255 277.9087926945698L985.0890409395255 277.9087926945698Q1014.2557048071483 277.9087926945698 1026.4412382289315 299.41036295816775L1026.4412382289315 299.41036295816775Q1051.3233113127658 277.9087926945698 1077.0701641878236 277.9087926945698L1077.0701641878236 277.9087926945698Q1098.8861998300486 277.9087926945698 1111.4648149751147 290.36948332265126Q1124.0827382925095 302.8301739507327 1124.0827382925095 322.32702742558575L1124.0827382925095 322.32702742558575L1124.0827382925095 405.81758545096426L1148.1393397574493 411.4779622662441L1148.1393397574493 423.66349568802724L1071.9994099574687 423.66349568802724L1071.9994099574687 411.4779622662441L1090.3956346071286 405.81758545096426L1090.3956346071286 326.02199562444895Q1090.3956346071286 312.7358333774726 1084.0277106899384 305.6603623583727Q1077.6597867727487 298.58489133927276 1066.0638759358908 298.58489133927276L1066.0638759358908 298.58489133927276Q1049.3579026963494 298.58489133927276 1031.236835252988 311.59589637995094L1031.236835252988 311.59589637995094Q1032.3767722505095 318.39621019275245 1032.3767722505095 322.32702742558575L1032.3767722505095 322.32702742558575L1032.3767722505095 405.81758545096426L1050.7729969001693 411.4779622662441L1050.7729969001693 423.66349568802724L980.0182867091704 423.66349568802724L980.0182867091704 411.4779622662441L998.4145113588303 405.81758545096426L998.4145113588303 326.02199562444895Q998.4145113588303 312.7358333774726 992.0465874416403 305.6603623583727Q985.6786635244504 298.58489133927276 974.0827526875923 298.58489133927276L974.0827526875923 298.58489133927276Q958.2022510669459 298.58489133927276 940.3956490022111 310.4559593824292L940.3956490022111 310.4559593824292L940.3956490022111 405.81758545096426L958.7918736518709 411.4779622662441L958.7918736518709 423.66349568802724Z " fill="#f8b7b7" transform="matrix(0.7621026590982332,0,0,0.7621026590982332,0,31.047269518218684)"/></g></svg>